<svg width="148" height="39" viewBox="0 0 148 39" fill="none" xmlns="http://www.w3.org/2000/svg">
<path d="M19.5054 12.6368C20.8715 12.6368 22.6551 12.8392 24.8561 13.244L24.7802 16.0901C22.7057 15.6853 20.9474 15.4829 19.5054 15.4829C18.0381 15.4829 16.9755 15.7738 16.3177 16.3557C15.6853 16.9376 15.369 17.823 15.369 19.0121V19.9987C15.369 20.6312 15.4449 21.1372 15.5967 21.5167C15.7738 21.8709 16.0774 22.1871 16.5075 22.4654C16.9376 22.7184 17.5827 22.984 18.4428 23.2623L21.972 24.4387C23.6671 25.0206 24.8561 25.7922 25.5392 26.7535C26.2475 27.7149 26.6017 29.119 26.6017 30.9658V31.6868C26.6017 33.9384 25.944 35.6208 24.6284 36.7339C23.3382 37.8471 21.2131 38.4037 18.2531 38.4037C16.8111 38.4037 14.9643 38.1507 12.7127 37.6447L12.7886 34.7227C14.8884 35.2287 16.6846 35.4816 18.1772 35.4816C20.0746 35.4816 21.4155 35.2034 22.1997 34.6468C22.984 34.0649 23.3761 33.1668 23.3761 31.9525V30.7002C23.3761 29.8147 23.1737 29.1443 22.769 28.6889C22.3895 28.2082 21.7064 27.8034 20.7197 27.4746L16.8111 26.1843C15.0654 25.6024 13.8511 24.8561 13.168 23.9454C12.485 23.0093 12.1434 21.6052 12.1434 19.7331V19.3157C12.1434 17.1147 12.7253 15.4576 13.8891 14.3445C15.0781 13.206 16.9502 12.6368 19.5054 12.6368Z" fill="white"/>
<path d="M39.9951 13.0922L47.6227 37.9483H44.1315L42.4997 32.1801H33.3542L31.7224 37.9483H28.4209L36.0105 13.0922H39.9951ZM37.9459 16.0521L34.1511 29.2961H41.7028L37.9459 16.0521Z" fill="white"/>
<path d="M57.6496 12.6368C60.306 12.6368 62.3299 13.1807 63.7214 14.2686C65.1128 15.3564 65.8085 16.8364 65.8085 18.7085V19.5434C65.8085 22.1997 64.6448 24.0339 62.3173 25.0459C63.734 25.3495 64.8345 26.0072 65.6188 27.0192C66.4284 28.0058 66.8331 29.2328 66.8331 30.7002V31.535C66.8331 33.6348 66.0868 35.3046 64.5942 36.5442C63.1269 37.7838 60.9005 38.4037 57.9153 38.4037C56.2203 38.4037 53.9054 38.3278 50.9707 38.176V12.7886C53.2982 12.6874 55.5245 12.6368 57.6496 12.6368ZM57.1563 15.407C56.2456 15.407 55.2589 15.445 54.1964 15.5208V24.0213H57.9153C59.4332 24.0213 60.5843 23.6544 61.3686 22.9208C62.1781 22.1871 62.5829 21.1625 62.5829 19.847V19.2018C62.5829 17.9369 62.1528 16.9882 61.2927 16.3557C60.4325 15.7232 59.0537 15.407 57.1563 15.407ZM54.1964 26.6397V35.3678C55.0312 35.4437 55.7143 35.5069 56.2456 35.5575C56.8021 35.5828 57.3587 35.5955 57.9153 35.5955C59.8633 35.5955 61.2927 35.2287 62.2034 34.495C63.1395 33.736 63.6075 32.6861 63.6075 31.3453V30.5484C63.6075 27.9426 61.786 26.6397 58.143 26.6397H54.1964Z" fill="white"/>
<path d="M79.1767 12.6368C82.0102 12.6368 84.0973 13.3451 85.4382 14.7619C86.779 16.1786 87.4494 18.1899 87.4494 20.7957V30.2448C87.4494 32.8506 86.779 34.8618 85.4382 36.2786C84.0973 37.6953 82.0102 38.4037 79.1767 38.4037C76.3432 38.4037 74.2561 37.6953 72.9152 36.2786C71.5744 34.8618 70.904 32.8506 70.904 30.2448V20.7957C70.904 18.1899 71.5744 16.1786 72.9152 14.7619C74.2561 13.3451 76.3432 12.6368 79.1767 12.6368ZM79.1767 15.4829C77.507 15.4829 76.242 15.9003 75.3819 16.7352C74.547 17.5701 74.1296 18.7971 74.1296 20.4162V30.5863C74.1296 32.2054 74.547 33.4451 75.3819 34.3052C76.242 35.1401 77.507 35.5575 79.1767 35.5575C80.8464 35.5575 82.0987 35.1401 82.9336 34.3052C83.7937 33.4451 84.2238 32.2054 84.2238 30.5863V20.4541C84.2238 18.835 83.7937 17.608 82.9336 16.7731C82.0987 15.913 80.8464 15.4829 79.1767 15.4829Z" fill="white"/>
<path d="M99.5614 12.6368C102.547 12.6368 104.748 13.2187 106.164 14.3824C107.581 15.5461 108.29 17.1779 108.29 19.2777V20.2264C108.29 21.6938 107.885 22.9967 107.075 24.1351C106.266 25.2483 105.102 26.0325 103.584 26.4879L110.035 37.9483H106.43L100.396 27.171C100.194 27.1963 99.7891 27.2089 99.182 27.2089C98.17 27.2089 97.1707 27.171 96.184 27.0951V37.9483H92.9584V12.7886C95.7919 12.6874 97.9929 12.6368 99.5614 12.6368ZM99.4855 15.3691C98.6507 15.3691 97.5502 15.3944 96.184 15.445V24.4007C97.5502 24.5272 98.6886 24.5905 99.5994 24.5905C103.242 24.5905 105.064 23.1105 105.064 20.1505V19.3916C105.064 18.0254 104.621 17.0135 103.736 16.3557C102.85 15.6979 101.434 15.3691 99.4855 15.3691Z" fill="white"/>
<path d="M126.544 13.0922V16.0142H116.678V23.8695H125.785V26.7535H116.678V35.0263H126.544V37.9483H113.452V13.0922H126.544Z" fill="white"/>
<path d="M139.694 12.6368C142.527 12.6368 144.614 13.3451 145.955 14.7619C147.296 16.1786 147.967 18.1899 147.967 20.7957V30.2448C147.967 32.8506 147.296 34.8618 145.955 36.2786C144.614 37.6953 142.527 38.4037 139.694 38.4037C136.86 38.4037 134.773 37.6953 133.432 36.2786C132.092 34.8618 131.421 32.8506 131.421 30.2448V20.7957C131.421 18.1899 132.092 16.1786 133.432 14.7619C134.773 13.3451 136.86 12.6368 139.694 12.6368ZM139.694 15.4829C138.024 15.4829 136.759 15.9003 135.899 16.7352C135.064 17.5701 134.647 18.7971 134.647 20.4162V30.5863C134.647 32.2054 135.064 33.4451 135.899 34.3052C136.759 35.1401 138.024 35.5575 139.694 35.5575C141.364 35.5575 142.616 35.1401 143.451 34.3052C144.311 33.4451 144.741 32.2054 144.741 30.5863V20.4541C144.741 18.835 144.311 17.608 143.451 16.7731C142.616 15.913 141.364 15.4829 139.694 15.4829Z" fill="white"/>
<path d="M17.4268 10.79L10.0854 17.466L11.1187 18.6023L18.4601 11.9262L17.4268 10.79Z" fill="white"/>
<path d="M14.2368 3.74964C13.0715 2.46819 11.1126 2.34669 9.86022 3.48554C9.51475 3.79971 9.2624 4.17911 9.09831 4.59358C7.94815 3.88653 6.44684 3.98318 5.42275 4.91446C4.39865 5.84574 4.16641 7.32554 4.75518 8.54311C4.33319 8.6616 3.9316 8.87687 3.57995 9.19665C2.3276 10.3355 2.24452 12.314 3.40983 13.5954C4.40867 14.6938 5.91965 14.992 7.18655 14.2781L9.62624 16.961L16.9676 10.2849L14.5279 7.6021C15.3586 6.4085 15.2356 4.84802 14.2368 3.74964Z" fill="white"/>
<path d="M9.84422 16.2092L7.88098 14.0503L8.38686 13.5903L9.84422 16.2092Z" fill="#223127"/>
<path d="M4.23938 13.0947C3.40701 12.1794 3.38443 10.816 4.15097 9.91135C4.0897 9.95553 4.0227 9.9934 3.96718 10.0439C3.06647 10.863 3.02162 12.2762 3.85972 13.1978C4.41655 13.8101 5.2138 14.0423 5.9648 13.9014C5.33316 13.8761 4.70436 13.606 4.23938 13.0947Z" fill="#223127"/>
<path d="M5.66098 6.25476C6.25401 5.1965 7.54593 4.78282 8.65129 5.2423C8.58729 5.19671 8.52945 5.1455 8.46502 5.11183C7.38948 4.48685 6.02783 4.84861 5.42862 5.91249C5.03327 6.61799 5.08088 7.45119 5.46266 8.11889C5.28163 7.51082 5.33563 6.83894 5.66098 6.25476Z" fill="#223127"/>
<path d="M12.1821 3.96896C13.3566 4.33096 14.0842 5.50295 13.9046 6.68118C13.931 6.61105 13.9631 6.54723 13.9838 6.47079C14.3187 5.28977 13.6297 4.03642 12.4433 3.67372C11.6584 3.43029 10.8629 3.64623 10.3135 4.15745C10.8671 3.86154 11.5269 3.76902 12.1821 3.96896Z" fill="#223127"/>
</svg>